<?xml version="1.0" encoding="UTF-8" standalone="no"?>
<svg
  width="210mm"
  height="297mm"
  viewBox="0 0 210 297"
  version="1.1"
  id="svg1"
  xml:space="preserve"
  inkscape:version="1.3 (0e150ed, 2023-07-21)"
  sodipodi:docname="logo.svg"
  xmlns:inkscape="http://www.inkscape.org/namespaces/inkscape"
  xmlns:sodipodi="http://sodipodi.sourceforge.net/DTD/sodipodi-0.dtd"
  xmlns="http://www.w3.org/2000/svg"
  xmlns:svg="http://www.w3.org/2000/svg"><sodipodi:namedview
     id="namedview1"
     pagecolor="#ffffff"
     bordercolor="#666666"
     borderopacity="1.0"
     inkscape:showpageshadow="2"
     inkscape:pageopacity="0.0"
     inkscape:pagecheckerboard="0"
     inkscape:deskcolor="#d1d1d1"
     inkscape:document-units="mm"
     showguides="true"
     inkscape:zoom="1.5605237"
     inkscape:cx="401.78819"
     inkscape:cy="354.68862"
     inkscape:window-width="1472"
     inkscape:window-height="920"
     inkscape:window-x="0"
     inkscape:window-y="36"
     inkscape:window-maximized="0"
     inkscape:current-layer="layer1"><sodipodi:guide
       position="64.465281,294.59758"
       orientation="0,-1"
       id="guide1"
       inkscape:locked="false" /></sodipodi:namedview><defs
     id="defs1" /><g
     inkscape:label="Layer 1"
     inkscape:groupmode="layer"
     id="layer1"><path
       style="fill:#1a1a1a"
       d="m 159.12254,154.48788 c -0.3638,-0.19167 -4.53345,-2.57438 -9.2659,-5.2949 l -8.60445,-4.94641 -1.97888,0.67583 c -4.9587,1.69351 -10.16847,2.6907 -15.823,3.02865 -4.28847,0.25629 -5.01763,0.11163 -5.43618,-1.07852 -0.69316,-1.97098 0.62603,-2.88081 4.17699,-2.88081 4.62576,0 12.44781,-1.4989 17.15986,-3.28826 0.98559,-0.37427 1.97347,-0.68049 2.1953,-0.68049 0.22183,0 3.6987,1.89807 7.72637,4.21794 4.02768,2.31986 7.36474,4.17625 7.41569,4.1253 0.0509,-0.051 -0.80927,-3.10036 -1.91158,-6.77648 -1.10232,-3.67611 -2.00421,-6.96666 -2.00421,-7.31233 0,-0.67431 0.0602,-0.74034 3.50907,-3.84805 6.52356,-5.87826 11.09218,-13.93968 12.80041,-22.5866 0.69526,-3.51939 0.62661,-9.947027 -0.14518,-13.592697 -1.50065,-7.08852 -4.46238,-12.942454 -9.41311,-18.605215 -3.87913,-4.437043 -9.59192,-8.71103 -15.21786,-11.385144 -4.5618,-2.16831 -4.38741,-2.227902 -2.79231,0.954173 1.7985,3.587827 3.19668,7.867002 3.88361,11.885921 0.71525,4.184656 0.58848,11.035755 -0.27897,15.075555 -1.72351,8.026537 -5.60149,15.197347 -11.56237,21.380067 -8.41698,8.73022 -18.71407,14.01324 -31.58329,16.20406 -2.642287,0.44981 -4.477697,0.56736 -9.128127,0.58462 -3.20146,0.0119 -6.76856,-0.0749 -7.9269,-0.19291 l -2.10607,-0.21451 0.51857,0.57853 c 0.77268,0.86201 4.49446,3.71907 6.60399,5.06961 5.61153,3.59256 11.906437,6.08674 18.842337,7.46576 3.7665,0.74886 3.89366,0.79736 4.27286,1.62962 0.42007,0.92195 0.37974,1.25599 -0.24795,2.05398 -0.71125,0.90421 -1.6253,0.90631 -5.86356,0.0134 -4.65617,-0.98089 -9.014107,-2.50066 -13.564107,-4.73028 -6.23989,-3.05771 -10.32706,-5.99911 -14.98662,-10.78538 l -2.81579,-2.89236 -3.13734,-1.04746 c -1.72553,-0.5761 -4.61132,-1.75806 -6.41285,-2.62657 l -3.27552,-1.57911 -9.02184,5.17449 c -9.57817,5.49358 -9.75931,5.5658 -10.81931,4.3131 -0.25466,-0.30096 -0.46302,-0.83417 -0.46302,-1.18491 0,-0.35074 1.32486,-5.05134 2.94413,-10.44578 l 2.94413,-9.80806 -0.55895,-0.70356 c -4.27915,-5.38629 -7.49634,-12.280067 -8.82005,-18.899557 -0.84569,-4.22909 -0.83576,-11.509027 0.0212,-15.538381 1.86451,-8.766659 5.92881,-16.22833 12.3264,-22.630105 2.92927,-2.931178 7.11828,-6.209477 7.93447,-6.209477 1.01452,0 1.99408,0.974944 1.99408,1.98468 0,0.997765 -0.25148,1.302624 -2.3555,2.855502 -2.00675,1.481089 -5.84507,5.203618 -7.69508,7.462943 -9.70932,11.857497 -11.65574,27.625858 -5.04592,40.878115 1.49432,2.99604 2.57949,4.71223 4.74829,7.50943 1.05389,1.35925 1.61436,2.32668 1.60951,2.77813 -0.004,0.38096 -1.06798,4.20275 -2.36418,8.49288 -1.2962,4.29014 -2.33272,7.82425 -2.30337,7.8536 0.0293,0.0294 3.23785,-1.78411 7.13,-4.02992 3.89215,-2.24581 7.36193,-4.08328 7.71061,-4.08328 0.34868,0 2.4574,0.89297 4.68605,1.98437 2.22864,1.09141 4.13776,1.98439 4.24247,1.98439 0.10472,0 -0.50716,-1.45853 -1.35974,-3.24116 -1.77559,-3.71253 -2.6297,-6.16387 -3.49707,-10.03671 -0.53504,-2.38901 -0.6101,-3.42243 -0.60178,-8.28568 0.009,-5.141467 0.0649,-5.791757 0.75116,-8.710937 1.74535,-7.423976 5.06514,-13.822395 10.16907,-19.599479 9.39577,-10.634949 23.340257,-17.122168 38.915477,-18.104154 3.63181,-0.228978 10.15065,-0.01467 12.4022,0.407722 l 0.92108,0.172796 -1.15716,-1.055503 C 113.06497,40.627853 88.393453,37.177757 68.778213,46.07173 c -2.19427,0.994931 -2.87542,1.020118 -3.75663,0.13891 -0.54345,-0.543455 -0.64637,-0.842115 -0.51557,-1.496137 0.0899,-0.449428 0.28997,-0.969607 0.44462,-1.155955 0.32408,-0.390496 5.11829,-2.443001 7.65317,-3.276487 3.06772,-1.00869 7.46866,-2.056749 10.71562,-2.551865 3.8185,-0.582267 13.33794,-0.663589 16.66875,-0.142397 7.458207,1.167031 12.827327,2.783679 18.520837,5.576641 6.15055,3.017174 10.97719,6.544383 15.40639,11.258699 2.07773,2.211476 2.47872,2.515871 3.83017,2.907564 4.24126,1.229251 10.31832,4.040795 14.18416,6.562277 3.14685,2.052531 4.97445,3.524304 7.9527,6.404346 7.05233,6.819786 11.22196,14.337995 13.05581,23.540807 0.77296,3.87893 0.8184,10.920367 0.0949,14.699417 -1.67433,8.74498 -5.85127,16.5249 -12.47846,23.24222 l -3.48338,3.53076 2.61315,8.69784 c 1.43723,4.7838 2.61314,8.88561 2.61314,9.11512 0,0.62476 -1.21365,1.71638 -1.9062,1.71452 -0.33403,-9e-4 -0.90499,-0.15846 -1.2688,-0.35013 z m -57.41458,-28.75319 c 18.58884,-3.26277 33.27332,-14.88925 38.35632,-30.368687 1.42612,-4.34304 1.96136,-8.19931 1.78907,-12.88991 -0.26741,-7.280192 -2.32229,-13.548292 -6.52533,-19.904526 l -1.43723,-2.17352 -1.87006,-0.39717 c -4.17253,-0.886178 -5.2664,-1.004335 -10.49891,-1.13406 -6.01399,-0.1491 -9.14696,0.107452 -13.98045,1.14483 -7.11075,1.526128 -14.019697,4.562146 -19.953097,8.768037 -3.27617,2.322314 -8.72211,7.889314 -10.81027,11.050576 -3.14476,4.760835 -4.94619,8.889183 -6.07063,13.912113 -0.52585,2.34898 -0.61663,3.48049 -0.61385,7.651427 0.004,5.36315 0.30394,7.35748 1.77322,11.77396 1.49149,4.48324 5.33075,11.25711 6.66852,11.76573 0.61801,0.23496 6.30517,1.22234 8.22375,1.42777 0.58208,0.0623 3.43958,0.0774 6.35,0.0336 3.97808,-0.0599 6.11265,-0.22379 8.598947,-0.66019 z"
       id="path1"
       sodipodi:nodetypes="sscssssssscsssssssssssssccssssscsscsscsssscsscssssssscscssssssccssscssscsssssssssscscssssssssscsssssscssscss" /><path
       d="m 98.167559,119.60589 c -3.537979,-1.29848 -5.226489,-5.13764 -3.782629,-8.60057 0.11782,-0.28258 -0.18432,-0.65683 -0.98706,-1.22265 -2.39421,-1.68759 -3.31525,-5.45975 -1.95923,-8.02401 l 0.60188,-1.13817 -1.41997,-1.477839 c -1.75092,-1.82228 -3.26021,-4.32232 -4.17878,-6.92186 -0.94357,-2.67032 -1.18306,-7.550692 -0.50981,-10.389291 0.97831,-4.124838 3.58879,-8.204742 6.80737,-10.639218 6.156499,-4.656658 13.85678,-5.338959 20.58701,-1.824161 4.31925,2.255684 7.48185,5.990692 9.16484,10.823603 0.67304,1.932735 0.73777,2.450042 0.74484,5.953124 0.007,3.536213 -0.0504,4.002113 -0.73507,5.953123 -0.90341,2.57424 -2.6284,5.41318 -4.35481,7.16704 l -1.28518,1.305609 0.61054,1.31993 c 1.23529,2.67058 0.46353,6.12825 -1.72511,7.72886 -0.53066,0.38808 -1.05856,0.78209 -1.17311,0.87556 -0.11455,0.0935 -0.0763,0.51676 0.0849,0.94064 0.8417,2.21265 -0.13342,5.68414 -1.99562,7.10451 -1.71239,1.30611 -2.66562,1.47297 -8.29918,1.45274 -3.73939,-0.0134 -5.473071,-0.12171 -6.195831,-0.38697 z m 12.139531,-4.43779 c 0.84375,-0.98175 0.84353,-2.29648 -5.5e-4,-3.27778 l -0.63855,-0.74236 h -5.17627 -5.176271 l -0.69393,0.69393 c -1.02947,1.02947 -0.96758,2.48318 0.14816,3.48009 l 0.84208,0.7524 5.028671,-0.082 5.02866,-0.082 z m 3.03961,-8.89458 c 1.34278,-1.34278 0.8003,-3.47172 -1.01297,-3.97529 -1.30169,-0.3615 -14.434051,-0.3632 -15.734481,-0.002 -1.902179,0.52828 -2.426309,2.57137 -1.020339,3.97733 l 0.773389,0.7734 h 8.110501 8.1105 z M 99.865669,98.051101 h 2.612761 v -2.19581 -2.19581 l -0.88947,-0.32163 c -1.944331,-0.70308 -3.773311,-3.23009 -4.054161,-5.601401 -0.13429,-1.1339 -0.0726,-1.36189 0.53175,-1.966278 0.40138,-0.401378 0.98201,-0.683657 1.40623,-0.683657 0.906721,0 1.947311,0.950681 1.947311,1.779055 0,0.84199 0.65561,2.06293 1.38028,2.570511 0.32425,0.22711 1.108,0.41293 1.74166,0.41293 1.50027,0 2.60237,-1.022931 2.86385,-2.658131 0.21598,-1.35069 0.8939,-2.104365 1.89284,-2.104365 1.80173,0 2.47909,1.466235 1.78322,3.859965 -0.50617,1.741161 -2.32703,3.878521 -3.73923,4.389171 l -0.89553,0.32383 v 2.19581 2.19581 h 2.61276 c 1.43702,0 2.99655,0.0768 3.46562,0.17057 0.79204,0.15841 0.97839,0.0398 2.61276,-1.66258 5.77848,-6.01902 5.7391,-15.008567 -0.0914,-20.878568 -6.04651,-6.087429 -14.95556,-6.137761 -21.06503,-0.119007 -3.11034,3.064164 -4.47171,6.355566 -4.46487,10.794794 0.006,3.905171 1.42964,7.317911 4.25929,10.210471 1.6476,1.68423 1.84777,1.81009 2.629979,1.65365 0.46566,-0.0931 2.0224,-0.16933 3.45942,-0.16933 z"
       style="fill:#ff6600"
       id="path1-9" /></g></svg>